<svg xmlns="http://www.w3.org/2000/svg" viewBox="0 0 340 340"><g id="Layer_27" data-name="Layer 27"><path d="M170.13,33.023l33.208,14.69a.922.922,0,0,1-.145,1.737L170.13,57.9Z" style="fill:#ff6d8d"/><polygon points="321.003 193.861 321.003 269.056 233.946 269.056 233.946 191.492 321.003 193.861" style="fill:#dd6c6c"/><path d="M329.321,179.043,321.728,139.7a10.911,10.911,0,0,0-10.714-8.844h-44.9l1.04,56.336Z" style="fill:#8989a3"/><rect x="286.689" y="217.944" width="18.946" height="22.249" transform="translate(592.324 458.137) rotate(180)" style="fill:#b95252"/><rect x="254.196" y="217.944" width="18.946" height="22.249" transform="translate(527.338 458.137) rotate(180)" style="fill:#b95252"/><polygon points="19.683 192.656 19.683 267.851 106.74 267.851 106.74 190.287 19.683 192.656" style="fill:#dd6c6c"/><path d="M10.679,179.043,18.272,139.7a10.911,10.911,0,0,1,10.714-8.844H73.707l-1.483,54.366Z" style="fill:#8989a3"/><rect x="34.365" y="217.944" width="18.946" height="22.249" style="fill:#b95252"/><rect x="66.858" y="217.944" width="18.946" height="22.249" style="fill:#b95252"/><path d="M329.321,179.043H284.637a11.9,11.9,0,0,1-11.718-9.822l-6.806-38.37H236.521v64.964h96.036Z" style="fill:#797996"/><path d="M55.182,179.043h-44.5L7.443,195.815h96.036V130.851H73.707L66.9,169.221A11.9,11.9,0,0,1,55.182,179.043Z" style="fill:#797996"/><rect x="99.351" y="166.257" width="141.118" height="107.376" style="fill:#fe8f89"/><path d="M13.092,260.838H117.225a0,0,0,0,1,0,0v23.327a10.163,10.163,0,0,1-10.163,10.163H23.255a10.163,10.163,0,0,1-10.163-10.163V260.838A0,0,0,0,1,13.092,260.838Z" transform="translate(130.317 555.167) rotate(180)" style="fill:#95d39a"/><path d="M238.647,99.192H101.173a10.911,10.911,0,0,0-10.737,8.969l-8.869,49,30.045,7.334,113.638.131,33-7.465-8.868-49A10.912,10.912,0,0,0,238.647,99.192Z" style="fill:#8989a3"/><polygon points="224.841 169.158 260.424 169.158 258.253 157.159 204.962 157.159 224.841 169.158" style="fill:#797996"/><polygon points="135.673 157.159 81.567 157.159 79.395 169.158 114.979 169.158 135.673 157.159" style="fill:#797996"/><polygon points="169.91 92.545 108.826 169.158 230.993 169.158 169.91 92.545" style="fill:#fe8f89"/><path d="M167.617,73.931l-69.2,95.227h16.564L169.91,92.545l54.931,76.613h16.564L172.2,73.931A2.834,2.834,0,0,0,167.617,73.931Z" style="fill:#797996"/><circle cx="169.91" cy="142.34" r="18.127" style="fill:#fff"/><path d="M190.517,273.633H173.41c-1.509-1.12-4.17-.676-7,0H149.3V230.819H166.41a6.379,6.379,0,0,0,7,0h17.107Z" style="fill:#dd6c6c"/><rect x="139.507" y="273.633" width="60.806" height="9.304" style="fill:#8989a3"/><rect x="122.881" y="190.287" width="18.946" height="22.249" style="fill:#dd6c6c"/><rect x="160.437" y="190.287" width="18.946" height="22.249" style="fill:#dd6c6c"/><rect x="197.992" y="190.287" width="18.946" height="22.249" style="fill:#dd6c6c"/><path d="M232.938,260.838h83.807A10.163,10.163,0,0,1,326.908,271v23.327a0,0,0,0,1,0,0H222.775a0,0,0,0,1,0,0V271A10.163,10.163,0,0,1,232.938,260.838Z" style="fill:#95d39a"/><rect x="139.507" y="282.318" width="60.806" height="8.685" style="fill:#797996"/><rect x="129.249" y="291.003" width="81.321" height="17.37" style="fill:#8989a3"/><rect x="166.41" y="230.819" width="7" height="42.814" style="fill:#af3f3f"/><path d="M176.646,145.34H169.91a3,3,0,0,1-3-3v-7.119a3,3,0,0,1,6,0v4.119h3.736a3,3,0,0,1,0,6Z" style="fill:#797996"/><path d="M325.164,139.033a14.434,14.434,0,0,0-14.15-11.682h-54.6l-3.586-19.813a14.4,14.4,0,0,0-14.182-11.846h-46.3L173.41,69.639V59.226l33.009-8.44a3.5,3.5,0,0,0,.549-6.592L171.326,28.427a3.5,3.5,0,0,0-4.916,3.2V69.639L147.476,95.692h-46.3a14.4,14.4,0,0,0-14.181,11.846l-3.586,19.813H28.986a14.434,14.434,0,0,0-14.15,11.682L4.006,195.151a3.5,3.5,0,0,0,3.437,4.163h8.74v60.019A13.653,13.653,0,0,0,9.592,271v23.327a3.5,3.5,0,0,0,3.5,3.5H117.225a3.5,3.5,0,0,0,3.5-3.5V277.133h15.282V287.5H129.25a3.5,3.5,0,0,0-3.5,3.5v17.37a3.5,3.5,0,0,0,3.5,3.5h81.32a3.5,3.5,0,0,0,3.5-3.5V291a3.5,3.5,0,0,0-3.5-3.5h-6.758v-10.37h15.463v17.195a3.5,3.5,0,0,0,3.5,3.5H326.908a3.5,3.5,0,0,0,3.5-3.5V271a13.653,13.653,0,0,0-6.591-11.668V199.314h8.74a3.5,3.5,0,0,0,3.437-4.163ZM173.41,37l21.485,9.5L173.41,52Zm65.236,65.688a7.408,7.408,0,0,1,7.294,6.092l10.294,56.873H243.188L197.43,102.692Zm5.323,96.622h72.848v58.027c-.024,0-.047,0-.072,0H243.969ZM169.91,76.73l64.625,88.927h-7.9l-53.885-75.15a3.5,3.5,0,0,0-5.689,0l-53.884,75.15h-7.9Zm48.115,88.927H121.794l48.116-67.1ZM93.879,108.784a7.41,7.41,0,0,1,7.294-6.092h41.216L96.632,165.657H83.586Zm-82.2,83.53,10.026-51.955a7.423,7.423,0,0,1,7.277-6.008H82.139l-6.187,34.183a3.5,3.5,0,0,0,3.444,4.123H95.851v19.657Zm84.168,7v58.024h-72.6c-.025,0-.048,0-.072,0V199.314Zm17.874,91.514H16.592V271a6.671,6.671,0,0,1,6.663-6.663h83.807A6.671,6.671,0,0,1,113.725,271ZM207.07,294.5v10.37H132.75V294.5Zm-10.258-17.37V287.5H143.007v-10.37Zm-44.01-7V234.319H166.41v35.814Zm20.608,0V234.319h13.607v35.814Zm45.909,0h-25.3V230.819a3.5,3.5,0,0,0-3.5-3.5H149.3a3.5,3.5,0,0,0-3.5,3.5v39.314H120.681a13.668,13.668,0,0,0-13.619-12.795h-4.211V172.657H236.969v84.681h-4.031A13.668,13.668,0,0,0,219.319,270.133Zm104.089,20.695H226.275V271a6.671,6.671,0,0,1,6.663-6.663h83.807A6.671,6.671,0,0,1,323.408,271Zm-79.439-98.514V172.657h16.455a3.5,3.5,0,0,0,3.444-4.123l-6.187-34.183h53.333a7.423,7.423,0,0,1,7.277,6.008l10.026,51.955Z" style="fill:#3c3c4f"/><path d="M305.635,214.444H286.689a3.5,3.5,0,0,0-3.5,3.5v22.249a3.5,3.5,0,0,0,3.5,3.5h18.946a3.5,3.5,0,0,0,3.5-3.5V217.944A3.5,3.5,0,0,0,305.635,214.444Zm-3.5,22.249H290.189V221.444h11.946Z" style="fill:#3c3c4f"/><path d="M273.142,214.444H254.2a3.5,3.5,0,0,0-3.5,3.5v22.249a3.5,3.5,0,0,0,3.5,3.5h18.946a3.5,3.5,0,0,0,3.5-3.5V217.944A3.5,3.5,0,0,0,273.142,214.444Zm-3.5,22.249H257.7V221.444h11.946Z" style="fill:#3c3c4f"/><path d="M149.311,142.34a20.6,20.6,0,1,0,20.6-20.6A20.622,20.622,0,0,0,149.311,142.34Zm34.2,0a13.6,13.6,0,1,1-13.6-13.6A13.614,13.614,0,0,1,183.509,142.34Z" style="fill:#3c3c4f"/><path d="M141.828,186.787H122.881a3.5,3.5,0,0,0-3.5,3.5v22.249a3.5,3.5,0,0,0,3.5,3.5h18.947a3.5,3.5,0,0,0,3.5-3.5V190.287A3.5,3.5,0,0,0,141.828,186.787Zm-3.5,22.249H126.381V193.787h11.947Z" style="fill:#3c3c4f"/><path d="M34.365,243.693H53.311a3.5,3.5,0,0,0,3.5-3.5V217.944a3.5,3.5,0,0,0-3.5-3.5H34.365a3.5,3.5,0,0,0-3.5,3.5v22.249A3.5,3.5,0,0,0,34.365,243.693Zm3.5-22.249H49.811v15.249H37.865Z" style="fill:#3c3c4f"/><path d="M66.858,243.693H85.8a3.5,3.5,0,0,0,3.5-3.5V217.944a3.5,3.5,0,0,0-3.5-3.5H66.858a3.5,3.5,0,0,0-3.5,3.5v22.249A3.5,3.5,0,0,0,66.858,243.693Zm3.5-22.249H82.3v15.249H70.358Z" style="fill:#3c3c4f"/><path d="M179.383,186.787H160.437a3.5,3.5,0,0,0-3.5,3.5v22.249a3.5,3.5,0,0,0,3.5,3.5h18.946a3.5,3.5,0,0,0,3.5-3.5V190.287A3.5,3.5,0,0,0,179.383,186.787Zm-3.5,22.249H163.937V193.787h11.946Z" style="fill:#3c3c4f"/><path d="M216.938,186.787H197.992a3.5,3.5,0,0,0-3.5,3.5v22.249a3.5,3.5,0,0,0,3.5,3.5h18.946a3.5,3.5,0,0,0,3.5-3.5V190.287A3.5,3.5,0,0,0,216.938,186.787Zm-3.5,22.249H201.492V193.787h11.946Z" style="fill:#3c3c4f"/></g></svg>