<svg xmlns="http://www.w3.org/2000/svg" viewBox="0 0 32 32"><defs><style>.cls-1{fill:#a1d8df;}.cls-2{fill:#68c7d3;}.cls-3{fill:#d1e6e9;}.cls-4{fill:#30acc2;}</style></defs><title>School</title><g id="School"><polygon class="cls-1" points="30 9 2 9 4 3 28 3 30 9"/><rect class="cls-2" x="1" y="29" width="30" height="2"/><rect class="cls-1" x="10" y="9" width="12" height="20"/><rect class="cls-3" x="2" y="9" width="8" height="20"/><rect class="cls-3" x="22" y="9" width="8" height="20"/><rect class="cls-2" x="1" y="9" width="9" height="2"/><rect class="cls-2" x="22" y="9" width="9" height="2"/><path class="cls-2" d="M8,17H4V15a2,2,0,0,1,4,0Z"/><path class="cls-2" d="M8,27H4V25a2,2,0,0,1,4,0Z"/><path class="cls-2" d="M28,17H24V15a2,2,0,0,1,4,0Z"/><path class="cls-2" d="M28,27H24V25a2,2,0,0,1,4,0Z"/><rect class="cls-4" x="9" y="7" width="14" height="2"/><polygon class="cls-2" points="22 7 10 7 16 1 22 7"/><path class="cls-4" d="M18,29H14V25a2,2,0,0,1,4,0Z"/><rect class="cls-1" x="2" y="19" width="8" height="2"/><rect class="cls-2" x="10" y="19" width="12" height="2"/><rect class="cls-1" x="22" y="19" width="8" height="2"/><path class="cls-2" d="M20,13c-1.55-.52-2.81-1.19-4,0-1.2-1.2-2.5-.5-4,0l1,3h6Z"/><path class="cls-4" d="M15.29,16.71A1.26,1.26,0,0,0,14,16.4L12.32,17l-.64-1.9c1.63-.54,2.81-1.16,4.32-.3,1.51-.85,2.69-.24,4.32.3L19.68,17c-1.75-.59-2.3-.92-3-.24A1,1,0,0,1,15.29,16.71Z"/></g></svg>